<svg width="48" height="48" viewBox="0 0 48 48" fill="none" xmlns="http://www.w3.org/2000/svg">
<circle cx="24" cy="24" r="24" fill="#FFEAFA"/>
<path fill-rule="evenodd" clip-rule="evenodd" d="M20.0158 32.8902C21.3457 32.971 22.6741 33.0028 24 32.9998C25.3257 33.0028 26.6543 32.971 27.9843 32.8902C29.1044 32.8221 30.167 32.4511 31.0529 31.7286C31.9062 31.0327 32.4415 30.1006 32.708 29.0565C32.9543 28.092 32.9674 27.1224 32.9795 26.2465L32.9797 26.2293C32.9898 25.4886 32.9982 24.7455 33 24.0016V24V23.9983C32.9982 23.2545 32.9898 22.5114 32.9797 21.7707L32.9795 21.7534C32.9674 20.8776 32.9541 19.908 32.708 18.9434C32.4415 17.8993 31.9062 16.9672 31.0529 16.2714C30.167 15.5489 29.1044 15.178 27.9843 15.1099C26.6543 15.029 25.3257 14.9971 24 15.0002C22.6741 14.9971 21.3457 15.029 20.0158 15.1099C18.8957 15.178 17.8331 15.5489 16.9471 16.2714C16.0937 16.9672 15.5584 17.8993 15.2919 18.9434C15.0458 19.9082 15.0325 20.8779 15.0206 21.7537L15.0203 21.7707C15.0102 22.5114 15.0017 23.2545 15 23.9983V24V24.0016C15.0017 24.7455 15.0102 25.4886 15.0203 26.2293L15.0206 26.2462C15.0325 27.1221 15.0458 28.0918 15.2919 29.0566C15.5584 30.1006 16.0937 31.0327 16.9471 31.7286C17.8331 32.4511 18.8957 32.8221 20.0158 32.8902ZM23.9984 31.5936C22.6965 31.5966 21.3975 31.5654 20.1011 31.4865C19.2406 31.4341 18.4681 31.1544 17.8358 30.6388C17.2484 30.1597 16.8577 29.5048 16.6546 28.7089C16.4546 27.9252 16.4389 27.115 16.4265 26.2101C16.4164 25.4716 16.408 24.7353 16.4063 24C16.408 23.2647 16.4164 22.5283 16.4265 21.7899C16.4389 20.8849 16.4546 20.0748 16.6546 19.2911C16.8577 18.4951 17.2484 17.8402 17.8358 17.3612C18.4681 16.8457 19.2406 16.5658 20.1011 16.5135C21.3975 16.4347 22.6965 16.4034 23.9984 16.4065H24H24.0016C25.3033 16.4034 26.6025 16.4347 27.8988 16.5135C28.7595 16.5658 29.5318 16.8456 30.1641 17.3612C30.7515 17.8402 31.1423 18.4951 31.3454 19.2911C31.5453 20.0748 31.5611 20.8849 31.5735 21.7899C31.5835 22.5283 31.5919 23.2645 31.5938 24C31.5919 24.7354 31.5835 25.4716 31.5735 26.2101C31.5611 27.115 31.5453 27.9252 31.3454 28.7089C31.1423 29.5048 30.7515 30.1597 30.1641 30.6388C29.5318 31.1544 28.7595 31.4341 27.8988 31.4865C26.6025 31.5654 25.3033 31.5966 24.0016 31.5936H24H23.9984Z" fill="#DE00A5"/>
<path fill-rule="evenodd" clip-rule="evenodd" d="M19.6279 24.0004C19.6279 26.4146 21.5851 28.3718 23.9994 28.3718C26.4136 28.3718 28.3708 26.4146 28.3708 24.0004C28.3708 21.5861 26.4136 19.6289 23.9994 19.6289C21.5851 19.6289 19.6279 21.5861 19.6279 24.0004ZM23.9994 26.9729C22.3576 26.9729 21.0268 25.6421 21.0268 24.0004C21.0268 22.3586 22.3576 21.0278 23.9994 21.0278C25.6411 21.0278 26.9719 22.3586 26.9719 24.0004C26.9719 25.6421 25.6411 26.9729 23.9994 26.9729Z" fill="#DE00A5"/>
<path d="M29.9145 19.1145C29.9145 19.6826 29.454 20.1431 28.886 20.1431C28.3179 20.1431 27.8574 19.6826 27.8574 19.1145C27.8574 18.5465 28.3179 18.0859 28.886 18.0859C29.454 18.0859 29.9145 18.5465 29.9145 19.1145Z" fill="#DE00A5"/>
</svg>
