<svg width="48" height="48" viewBox="0 0 48 48" fill="none" xmlns="http://www.w3.org/2000/svg">
<circle cx="24" cy="24" r="24" fill="#FFEAFA"/>
<path d="M33 32.9996V26.4805C33 23.2765 32.3103 20.8291 28.5724 20.8291C26.7702 20.8291 25.5687 21.8081 25.0792 22.7426H25.0347V21.1184H21.4971V32.9996H25.1905V27.1034C25.1905 25.546 25.4797 24.0554 27.3931 24.0554C29.2844 24.0554 29.3066 25.813 29.3066 27.1924V32.9773H33V32.9996Z" fill="#DE00A5"/>
<path d="M15.4893 21.1191H19.1827V33.0003H15.4893V21.1191Z" fill="#DE00A5"/>
<path d="M17.3362 15.2002C16.157 15.2002 15.2003 16.1569 15.2003 17.3361C15.2003 18.5154 16.157 19.4943 17.3362 19.4943C18.5154 19.4943 19.4721 18.5154 19.4721 17.3361C19.4721 16.1569 18.5154 15.2002 17.3362 15.2002Z" fill="#DE00A5"/>
</svg>
