<svg width="48" height="48" viewBox="0 0 48 48" fill="none" xmlns="http://www.w3.org/2000/svg">
<circle cx="24" cy="24" r="24" fill="#FFEAFA"/>
<path d="M31.9915 19.507C30.9505 19.507 29.99 19.1661 29.2188 18.5911C28.3343 17.932 27.6988 16.9651 27.4743 15.8507C27.4188 15.5753 27.3889 15.2912 27.386 15H24.4125V23.0308L24.4089 27.4298C24.4089 28.6058 23.6342 29.603 22.56 29.9536C22.2483 30.0554 21.9117 30.1037 21.5611 30.0846C21.1137 30.0603 20.6944 29.9268 20.33 29.7114C19.5544 29.2528 19.0286 28.4213 19.0144 27.4698C18.9919 25.9829 20.2082 24.7705 21.7115 24.7705C22.0082 24.7705 22.2932 24.8184 22.56 24.9054V22.7104V21.9213C22.2786 21.8802 21.9923 21.8586 21.7026 21.8586C20.0571 21.8586 18.5182 22.5347 17.4181 23.7527C16.5866 24.673 16.0879 25.8472 16.0109 27.0786C15.9101 28.6962 16.509 30.2339 17.6703 31.3683C17.841 31.535 18.0201 31.6894 18.2075 31.8321C19.2032 32.5894 20.4205 33 21.7026 33C21.9923 33 22.2786 32.9788 22.56 32.9377C23.7577 32.7624 24.8628 32.2205 25.7348 31.3683C26.8064 30.3216 27.3984 28.9317 27.4048 27.4525L27.3896 20.8837C27.9008 21.2734 28.4597 21.596 29.0596 21.8463C29.9926 22.2354 30.9818 22.4326 32 22.4322V20.2981V19.5063L31.9915 19.507Z" fill="#DE00A5"/>
</svg>
