<svg width="48" height="48" viewBox="0 0 48 48" fill="none" xmlns="http://www.w3.org/2000/svg">
<circle cx="24" cy="24" r="24" fill="#FFEAFA"/>
<path d="M24 34C18.4844 34 14 29.5182 14 24.0038C14 18.4818 18.4844 14 24 14C29.5157 14 34 18.4818 34 23.9962C34 29.5103 29.5157 34 24 34ZM32.4297 25.3648C32.1407 25.271 29.789 24.5748 27.1093 24.9973C28.2265 28.0633 28.6797 30.5663 28.7657 31.0825C30.6875 29.792 32.0547 27.7427 32.4297 25.3648ZM27.336 31.8725C27.211 31.1217 26.711 28.5092 25.5157 25.3962C25.5 25.404 25.4765 25.4118 25.461 25.4118C20.6406 27.0935 18.9141 30.4333 18.7578 30.7462C20.2031 31.8725 22.0235 32.5452 24 32.5452C25.1797 32.553 26.3125 32.3105 27.336 31.8725ZM17.6563 29.7215C17.8516 29.393 20.1953 25.5135 24.6015 24.0822C24.711 24.043 24.8282 24.0117 24.9375 23.9805C24.7265 23.4955 24.4922 23.0105 24.2422 22.5335C19.9766 23.8083 15.8359 23.7537 15.4609 23.7458C15.4609 23.8318 15.4531 23.9178 15.4531 24.0038C15.4609 26.2018 16.2891 28.2042 17.6563 29.7215ZM15.6406 22.2597C16.0234 22.2675 19.5391 22.2832 23.539 21.2193C22.125 18.7008 20.5937 16.589 20.375 16.2839C17.9766 17.4102 16.1953 19.616 15.6406 22.2597ZM22 15.7051C22.2343 16.018 23.789 18.1298 25.1875 20.7032C28.2265 19.5612 29.5078 17.8404 29.664 17.6214C28.1563 16.2839 26.1718 15.4705 24 15.4705C23.3125 15.4705 22.6407 15.5565 22 15.7051ZM30.6093 18.607C30.4297 18.8494 29 20.6875 25.8438 21.9782C26.039 22.3848 26.2343 22.7993 26.414 23.214C26.4765 23.3625 26.539 23.5112 26.6015 23.652C29.4453 23.2922 32.2657 23.871 32.5468 23.9257C32.5235 21.9155 31.8047 20.0618 30.6093 18.607Z" fill="#DE00A5"/>
</svg>
